<?xml version="1.0" encoding="utf-8"?>
<!-- Generator: Adobe Illustrator 29.7.1, SVG Export Plug-In . SVG Version: 9.03 Build 0)  -->
<!DOCTYPE svg PUBLIC "-//W3C//DTD SVG 1.1//EN" "http://www.w3.org/Graphics/SVG/1.1/DTD/svg11.dtd" [
	<!ENTITY st0 "fill:none;">
	<!ENTITY st1 "fill:#FFFFFF;">
]>
<svg version="1.1" id="Layer_1" xmlns="http://www.w3.org/2000/svg" xmlns:xlink="http://www.w3.org/1999/xlink" x="0px" y="0px"
	 width="576px" height="576px" viewBox="0 0 576 576" style="enable-background:new 0 0 576 576;" xml:space="preserve">
<g>
	<g>
		<path style="&st0;" d="M323.5,250.8h-70.9c-5.9,0-10.6,4.8-10.6,10.6v138.7h92.1V261.4C334.1,255.6,329.3,250.8,323.5,250.8z"/>
		<path style="&st0;" d="M200.8,260.3c-0.4-0.9-0.9-1.8-1.4-2.7c-0.6-0.8-1.2-1.6-1.9-2.3c-3.6-3.5-8.8-5.2-13.8-4.2
			c-1,0.2-1.9,0.5-2.9,0.9c-0.9,0.4-1.8,0.9-2.6,1.4c-0.8,0.6-1.6,1.2-2.3,1.9c-0.7,0.7-1.3,1.5-1.9,2.3c-0.5,0.8-1,1.7-1.4,2.7
			c-0.4,0.9-0.7,1.9-0.9,2.9c-0.2,1-0.3,2-0.3,3c0,4,1.6,7.9,4.5,10.8c0.7,0.7,1.5,1.3,2.3,1.9c0.8,0.6,1.7,1,2.6,1.4
			c0.9,0.4,1.9,0.7,2.9,0.9c1,0.2,2,0.3,3,0.3c4,0,8-1.6,10.8-4.5c0.7-0.7,1.3-1.5,1.9-2.3c0.5-0.8,1-1.7,1.4-2.6
			c0.4-0.9,0.7-1.9,0.9-2.9c0.2-1,0.3-2,0.3-3c0-1-0.1-2-0.3-3C201.5,262.1,201.2,261.2,200.8,260.3z"/>
		<path style="&st0;" d="M402.8,349.7c-0.4-0.9-0.9-1.8-1.4-2.6c-0.5-0.8-1.2-1.6-1.9-2.3c-0.7-0.7-1.5-1.3-2.3-1.9
			c-0.8-0.5-1.7-1-2.6-1.4c-0.9-0.4-1.9-0.7-2.9-0.9c-5-1-10.2,0.6-13.8,4.2c-0.7,0.7-1.3,1.5-1.9,2.3c-0.6,0.8-1,1.7-1.4,2.6
			c-0.4,0.9-0.7,1.9-0.9,2.9c-0.2,1-0.3,2-0.3,3c0,1,0.1,2,0.3,3c0.2,1,0.5,1.9,0.9,2.9c0.4,0.9,0.9,1.8,1.4,2.6
			c0.5,0.8,1.2,1.6,1.9,2.3c2.9,2.8,6.8,4.5,10.8,4.5c1,0,2-0.1,3-0.3c1-0.2,1.9-0.5,2.9-0.9c0.9-0.4,1.8-0.9,2.6-1.4
			c0.8-0.5,1.6-1.2,2.3-1.9c0.7-0.7,1.3-1.5,1.9-2.3c0.6-0.8,1-1.7,1.4-2.6c0.4-0.9,0.7-1.9,0.9-2.9c0.2-1,0.3-2,0.3-3
			c0-1-0.1-2-0.3-3C403.5,351.6,403.2,350.6,402.8,349.7z"/>
		<path style="&st0;" d="M183.7,340.5c-1,0.2-1.9,0.5-2.9,0.9c-0.9,0.4-1.8,0.9-2.6,1.4c-0.8,0.6-1.6,1.2-2.3,1.9
			c-2.9,2.9-4.5,6.8-4.5,10.8c0,1,0.1,2,0.3,3c0.2,1,0.5,1.9,0.9,2.9c0.4,0.9,0.9,1.8,1.4,2.6c0.6,0.8,1.2,1.6,1.9,2.3
			c0.7,0.7,1.5,1.3,2.3,1.9c0.8,0.6,1.7,1,2.6,1.4c0.9,0.4,1.9,0.7,2.9,0.9c1,0.2,2,0.3,3,0.3c4,0,8-1.6,10.8-4.5
			c0.7-0.7,1.3-1.5,1.9-2.3c0.5-0.8,1-1.7,1.4-2.6c0.4-0.9,0.7-1.9,0.9-2.9c0.2-1,0.3-2,0.3-3c0-4-1.6-8-4.5-10.8
			C193.9,341.2,188.6,339.5,183.7,340.5z"/>
		<path style="&st0;" d="M183.7,295.8c-1,0.2-1.9,0.5-2.9,0.9c-0.9,0.4-1.8,0.9-2.6,1.4c-0.8,0.6-1.6,1.2-2.3,1.9
			c-2.9,2.9-4.5,6.8-4.5,10.8c0,4,1.6,7.9,4.5,10.8c0.7,0.7,1.5,1.3,2.3,1.9c0.8,0.5,1.7,1,2.6,1.4c0.9,0.4,1.9,0.7,2.9,0.9
			c1,0.2,2,0.3,3,0.3c4,0,8-1.6,10.8-4.5c2.8-2.9,4.5-6.8,4.5-10.8c0-4-1.6-8-4.5-10.8C193.9,296.5,188.6,294.8,183.7,295.8z"/>
		<path style="&st0;" d="M424.9,206.5l-128.4-90.1c-5.3-3.7-12.3-3.7-17.6,0L151,206.5c-6.9,4.9-8.6,14.4-3.7,21.3
			c4.9,6.9,14.4,8.6,21.3,3.7l119.1-83.9l119.6,83.9c2.7,1.9,5.7,2.8,8.8,2.8c4.8,0,9.6-2.3,12.5-6.5
			C433.5,220.8,431.8,211.3,424.9,206.5z"/>
		<path style="&st0;" d="M402.8,260.3c-0.4-0.9-0.9-1.8-1.4-2.7c-0.5-0.8-1.2-1.6-1.9-2.3c-0.7-0.7-1.5-1.3-2.3-1.9
			c-0.8-0.6-1.7-1-2.6-1.4c-0.9-0.4-1.9-0.7-2.9-0.9c-5-1-10.3,0.6-13.8,4.2c-0.7,0.7-1.3,1.5-1.9,2.3c-0.6,0.8-1,1.7-1.4,2.7
			c-0.4,0.9-0.7,1.9-0.9,2.9c-0.2,1-0.3,2-0.3,3c0,1,0.1,2,0.3,3c0.2,1,0.5,1.9,0.9,2.9c0.4,0.9,0.9,1.8,1.4,2.6
			c0.5,0.8,1.2,1.6,1.9,2.3c2.9,2.9,6.8,4.5,10.8,4.5c1,0,2-0.1,3-0.3c1-0.2,1.9-0.5,2.9-0.9c0.9-0.4,1.8-0.9,2.6-1.4
			c0.8-0.6,1.6-1.2,2.3-1.9c0.7-0.7,1.3-1.5,1.9-2.3c0.6-0.8,1-1.7,1.4-2.6c0.4-0.9,0.7-1.9,0.9-2.9c0.2-1,0.3-2,0.3-3
			c0-1-0.1-2-0.3-3C403.5,262.1,403.2,261.2,402.8,260.3z"/>
		<path style="&st0;" d="M402.8,305c-0.4-0.9-0.9-1.8-1.4-2.6c-0.5-0.8-1.2-1.6-1.9-2.3c-0.7-0.7-1.5-1.3-2.3-1.9
			c-0.8-0.6-1.7-1-2.6-1.4c-0.9-0.4-1.9-0.7-2.9-0.9c-5-1-10.2,0.6-13.8,4.2c-0.7,0.7-1.3,1.5-1.9,2.3c-0.6,0.8-1,1.7-1.4,2.6
			c-0.4,0.9-0.7,1.9-0.9,2.9c-0.2,1-0.3,2-0.3,3c0,4,1.6,7.9,4.5,10.8c2.9,2.9,6.8,4.5,10.8,4.5c1,0,2-0.1,3-0.3
			c1-0.2,1.9-0.5,2.9-0.9c0.9-0.4,1.8-0.9,2.6-1.4c0.8-0.6,1.6-1.2,2.3-1.9c2.9-2.9,4.5-6.8,4.5-10.8c0-1-0.1-2-0.3-3
			C403.5,306.8,403.2,305.9,402.8,305z"/>
		<path style="&st1;" d="M460.1,211.3c-2.1-11.7-8.6-22-18.3-28.8L313.3,92.3c-7.6-5.3-16.4-8.1-25.6-8.1c-9.3,0-18.1,2.8-25.7,8.1
			l-127.9,90.1c-20.1,14.2-24.9,42.1-10.8,62.2c4.9,6.9,11.5,12.2,19.1,15.4c-0.3,2-0.5,4-0.5,6c0,7.9,2.2,15.6,6.1,22.3
			c-3.9,6.8-6.1,14.5-6.1,22.4c0,7.9,2.2,15.6,6.1,22.4c-3.9,6.8-6.1,14.5-6.1,22.4c0,3,0.3,6,0.9,9c0.6,2.7,1.4,5.4,2.4,7.9
			c1.1,2.6,2.4,5.2,4.1,7.7c1.6,2.5,3.6,4.8,5.6,6.9c2.1,2.1,4.5,4,6.9,5.6c2.3,1.5,4.8,2.9,7.4,3.9l0.2,0.1
			c2.6,1.1,5.3,1.9,8.1,2.5c2.9,0.6,5.9,0.9,9,0.9c5.3,0,25.5,0,31,0h24.2V261.4c0-5.9,4.8-10.6,10.6-10.6h70.9
			c5.9,0,10.6,4.8,10.6,10.6v138.7h22.5c5.7,0,26.6,0,32.1,0c3,0,6-0.3,8.9-0.9c2.8-0.6,5.5-1.4,8.1-2.5l0.2-0.1
			c2.6-1.1,5-2.4,7.3-3.9c2.3-1.5,4.5-3.3,6.6-5.3l0.3-0.3c2.1-2.1,4-4.5,5.6-6.9c1.7-2.5,3-5.1,4.1-7.7c1-2.5,1.9-5.2,2.4-8
			c0.6-2.9,0.9-5.9,0.9-8.9c0-3-0.3-6-0.9-9c-0.6-2.7-1.4-5.4-2.4-8c-0.8-1.9-1.7-3.7-2.7-5.5c3.9-6.7,6.1-14.5,6.1-22.3
			c0-3-0.3-6-0.9-9c-0.6-2.7-1.4-5.4-2.4-8c-0.8-1.9-1.7-3.7-2.7-5.4c1-1.8,2-3.6,2.7-5.5c1-2.6,1.9-5.2,2.4-8
			c0.6-2.9,0.9-5.9,0.9-8.9c0-1.9-0.1-3.9-0.4-5.8c7.8-3.2,14.7-8.6,19.7-15.7C459.5,234.9,462.2,223,460.1,211.3z M201.6,358.5
			c-0.2,1-0.5,1.9-0.9,2.9c-0.4,0.9-0.9,1.8-1.4,2.6c-0.6,0.8-1.2,1.6-1.9,2.3c-2.9,2.8-6.8,4.5-10.8,4.5c-1,0-2-0.1-3-0.3
			c-1-0.2-1.9-0.5-2.9-0.9c-0.9-0.4-1.8-0.9-2.6-1.4c-0.8-0.5-1.6-1.2-2.3-1.9c-0.7-0.7-1.3-1.5-1.9-2.3c-0.5-0.8-1-1.7-1.4-2.6
			c-0.4-0.9-0.7-1.9-0.9-2.9c-0.2-1-0.3-2-0.3-3c0-4,1.6-8,4.5-10.8c0.7-0.7,1.5-1.3,2.3-1.9c0.8-0.5,1.7-1,2.6-1.4
			c0.9-0.4,1.9-0.7,2.9-0.9c5-1,10.2,0.6,13.8,4.2c2.8,2.9,4.5,6.8,4.5,10.8C201.9,356.5,201.8,357.5,201.6,358.5z M197.5,321.6
			c-2.9,2.9-6.8,4.5-10.8,4.5c-1,0-2-0.1-3-0.3c-1-0.2-1.9-0.5-2.9-0.9c-0.9-0.4-1.8-0.9-2.6-1.4c-0.8-0.6-1.6-1.2-2.3-1.9
			c-2.9-2.9-4.5-6.8-4.5-10.8c0-4,1.6-8,4.5-10.8c0.7-0.7,1.5-1.3,2.3-1.9c0.8-0.6,1.7-1,2.6-1.4c0.9-0.4,1.9-0.7,2.9-0.9
			c5-1,10.2,0.6,13.8,4.2c2.8,2.9,4.5,6.8,4.5,10.8C201.9,314.8,200.3,318.8,197.5,321.6z M201.6,269.1c-0.2,1-0.5,1.9-0.9,2.9
			c-0.4,0.9-0.9,1.8-1.4,2.6c-0.6,0.8-1.2,1.6-1.9,2.3c-2.9,2.9-6.8,4.5-10.8,4.5c-1,0-2-0.1-3-0.3c-1-0.2-1.9-0.5-2.9-0.9
			c-0.9-0.4-1.8-0.9-2.6-1.4c-0.8-0.6-1.6-1.2-2.3-1.9c-2.9-2.9-4.5-6.8-4.5-10.8c0-1,0.1-2,0.3-3c0.2-1,0.5-1.9,0.9-2.9
			c0.4-0.9,0.9-1.8,1.4-2.7c0.6-0.8,1.2-1.6,1.9-2.3c0.7-0.7,1.5-1.3,2.3-1.9c0.8-0.6,1.7-1,2.6-1.4c0.9-0.4,1.9-0.7,2.9-0.9
			c5-1,10.2,0.6,13.8,4.2c0.7,0.7,1.3,1.5,1.9,2.3c0.5,0.8,1,1.7,1.4,2.7c0.4,0.9,0.7,1.9,0.9,2.9c0.2,1,0.3,2,0.3,3
			C201.9,267.1,201.8,268.1,201.6,269.1z M403.7,358.5c-0.2,1-0.5,1.9-0.9,2.9c-0.4,0.9-0.9,1.8-1.4,2.6c-0.5,0.8-1.2,1.6-1.9,2.3
			c-0.7,0.7-1.5,1.3-2.3,1.9c-0.8,0.6-1.7,1-2.6,1.4c-0.9,0.4-1.9,0.7-2.9,0.9c-1,0.2-2,0.3-3,0.3c-4,0-8-1.7-10.8-4.5
			c-0.7-0.7-1.3-1.5-1.9-2.3c-0.6-0.8-1-1.7-1.4-2.6c-0.4-0.9-0.7-1.9-0.9-2.9c-0.2-1-0.3-2-0.3-3c0-1,0.1-2,0.3-3
			c0.2-1,0.5-1.9,0.9-2.9c0.4-0.9,0.9-1.8,1.4-2.6c0.5-0.8,1.2-1.6,1.9-2.3c3.6-3.5,8.8-5.2,13.8-4.2c1,0.2,1.9,0.5,2.9,0.9
			c0.9,0.4,1.8,0.9,2.6,1.4c0.8,0.6,1.6,1.2,2.3,1.9c0.7,0.7,1.3,1.5,1.9,2.3c0.6,0.8,1,1.7,1.4,2.6c0.4,0.9,0.7,1.9,0.9,2.9
			c0.2,1,0.3,2,0.3,3C404,356.5,403.9,357.5,403.7,358.5z M399.5,321.6c-0.7,0.7-1.5,1.3-2.3,1.9c-0.8,0.5-1.7,1-2.6,1.4
			c-0.9,0.4-1.9,0.7-2.9,0.9c-1,0.2-2,0.3-3,0.3c-4,0-8-1.6-10.8-4.5c-2.8-2.9-4.5-6.8-4.5-10.8c0-1,0.1-2,0.3-3
			c0.2-1,0.5-1.9,0.9-2.9c0.4-0.9,0.9-1.8,1.4-2.6c0.5-0.8,1.2-1.6,1.9-2.3c3.6-3.5,8.8-5.2,13.8-4.2c1,0.2,1.9,0.5,2.9,0.9
			c0.9,0.4,1.8,0.9,2.6,1.4c0.8,0.6,1.6,1.2,2.3,1.9c0.7,0.7,1.3,1.5,1.9,2.3c0.6,0.8,1,1.7,1.4,2.6c0.4,0.9,0.7,1.9,0.9,2.9
			c0.2,1,0.3,2,0.3,3C404,314.8,402.4,318.8,399.5,321.6z M403.7,269.1c-0.2,1-0.5,1.9-0.9,2.9c-0.4,0.9-0.9,1.8-1.4,2.6
			c-0.5,0.8-1.2,1.6-1.9,2.3c-0.7,0.7-1.5,1.3-2.3,1.9c-0.8,0.6-1.7,1-2.6,1.4c-0.9,0.4-1.9,0.7-2.9,0.9c-1,0.2-2,0.3-3,0.3
			c-4,0-8-1.6-10.8-4.5c-0.7-0.7-1.3-1.5-1.9-2.3c-0.6-0.8-1-1.7-1.4-2.6c-0.4-0.9-0.7-1.9-0.9-2.9c-0.2-1-0.3-2-0.3-3
			c0-1,0.1-2,0.3-3c0.2-1,0.5-1.9,0.9-2.9c0.4-0.9,0.9-1.8,1.4-2.7c0.5-0.8,1.2-1.6,1.9-2.3c3.5-3.5,8.8-5.2,13.8-4.2
			c1,0.2,1.9,0.5,2.9,0.9c0.9,0.4,1.8,0.9,2.6,1.4c0.8,0.6,1.6,1.2,2.3,1.9c0.7,0.7,1.3,1.5,1.9,2.3c0.6,0.8,1,1.7,1.4,2.7
			c0.4,0.9,0.7,1.9,0.9,2.9c0.2,1,0.3,2,0.3,3C404,267.1,403.9,268.1,403.7,269.1z M428.7,227.8c-3,4.2-7.7,6.5-12.5,6.5
			c-3,0-6.1-0.9-8.8-2.8l-119.6-83.9l-119.1,83.9c-6.9,4.9-16.4,3.2-21.3-3.7c-4.9-6.9-3.2-16.4,3.7-21.3l127.9-90.1
			c5.3-3.7,12.3-3.7,17.6,0l128.4,90.1C431.8,211.3,433.5,220.8,428.7,227.8z"/>
	</g>
	<g>
		<path style="&st1;" d="M149.2,437v54.8H131V437h-15v-15.5h48.3V437H149.2z"/>
		<path style="&st1;" d="M184.5,421.5v70.3h-18.3v-70.3H184.5z"/>
		<path style="&st1;" d="M189.9,491.8l11.9-70.3h18.1l14.1,37.5l14-37.5H266l11.9,70.3h-18.2l-6.1-40.4l-16.6,40.4h-7.3l-15.8-40.4
			l-6.1,40.4H189.9z"/>
		<path style="&st1;" d="M283.3,421.5h27.2c6.5,0,11.4,1.6,14.7,4.7c3.4,3.1,5,7.6,5,13.4c0,3.5-0.6,6.5-1.9,8.8s-3.2,4.3-5.8,5.9
			c2.6,0.5,4.8,1.3,6.7,2.3c1.8,1,3.3,2.3,4.5,3.8s2,3.2,2.5,5c0.5,1.9,0.7,3.9,0.7,6c0,3.3-0.6,6.2-1.7,8.8
			c-1.2,2.5-2.8,4.7-4.8,6.4c-2.1,1.7-4.6,3-7.6,3.9c-3,0.9-6.3,1.3-10.1,1.3h-29.4V421.5z M301.6,449.1h3.4c5.7,0,8.6-2.3,8.6-6.8
			c0-4.5-2.9-6.8-8.6-6.8h-3.4V449.1z M301.6,477.6h4c4.6,0,7.9-0.6,9.9-1.8c2-1.2,3-3.1,3-5.7c0-2.6-1-4.5-3-5.7
			c-2-1.2-5.3-1.8-9.9-1.8h-4V477.6z"/>
		<path style="&st1;" d="M400.1,491.8h-22.7l-17.4-27v27h-18.3v-70.3h28.4c3.9,0,7.3,0.6,10.3,1.7c2.9,1.2,5.3,2.7,7.2,4.7
			c1.9,2,3.3,4.3,4.3,6.9c1,2.6,1.4,5.4,1.4,8.4c0,5.3-1.3,9.7-3.9,13c-2.6,3.3-6.4,5.6-11.4,6.8L400.1,491.8z M359.9,452.9h3.4
			c3.6,0,6.4-0.7,8.3-2.2c1.9-1.5,2.9-3.6,2.9-6.4s-1-4.9-2.9-6.4c-1.9-1.5-4.7-2.2-8.3-2.2h-3.4V452.9z"/>
		<path style="&st1;" d="M426.3,476.3h29.5v15.5h-60.1l33.3-54.8h-27.7v-15.5h58.2L426.3,476.3z"/>
	</g>
</g>
</svg>
